<?xml version="1.0" encoding="UTF-8" standalone="no"?>
<!DOCTYPE svg PUBLIC "-//W3C//DTD SVG 1.1//EN" "http://www.w3.org/Graphics/SVG/1.1/DTD/svg11.dtd">
<svg width="100%" height="100%" viewBox="0 0 3334 3334" version="1.1" xmlns="http://www.w3.org/2000/svg" xmlns:xlink="http://www.w3.org/1999/xlink" xml:space="preserve" xmlns:serif="http://www.serif.com/" style="fill-rule:evenodd;clip-rule:evenodd;stroke-linejoin:round;stroke-miterlimit:2;">
    <g transform="matrix(4.16667,0,0,4.16667,0,0)">
        <path d="M720.663,138.146L79.339,138.146C35.589,138.146 -0,173.733 -0,217.485L-0,582.515C-0,626.265 35.589,661.854 79.339,661.854L720.661,661.854C764.411,661.854 799.998,626.265 799.998,582.515L799.998,217.485C800,173.733 764.412,138.146 720.663,138.146ZM747.109,217.485L747.109,582.515C747.109,586.688 745.934,590.498 744.202,594.009L557.231,407.023L747.055,217.199C747.055,217.305 747.109,217.381 747.109,217.485ZM52.893,582.514L52.893,217.485C52.893,217.381 52.946,217.306 52.946,217.201L242.77,407.025L55.786,594.007C54.068,590.496 52.893,586.688 52.893,582.514ZM408.163,481.303C403.799,485.665 396.203,485.665 391.839,481.303L101.588,191.038L698.426,191.038L408.163,481.303ZM280.167,444.423L354.442,518.7C366.619,530.876 382.799,537.577 400.001,537.577C417.201,537.577 433.382,530.876 445.56,518.7L519.838,444.423L684.362,608.962L115.627,608.962L280.167,444.423Z" style="fill:white;fill-rule:nonzero;"/>
    </g>
</svg>
