<?xml version="1.0" encoding="UTF-8" standalone="no"?>
<!DOCTYPE svg PUBLIC "-//W3C//DTD SVG 1.1//EN" "http://www.w3.org/Graphics/SVG/1.1/DTD/svg11.dtd">
<svg width="100%" height="100%" viewBox="0 0 1223 369" version="1.1" xmlns="http://www.w3.org/2000/svg" xmlns:xlink="http://www.w3.org/1999/xlink" xml:space="preserve" xmlns:serif="http://www.serif.com/" style="fill-rule:evenodd;clip-rule:evenodd;stroke-linejoin:round;stroke-miterlimit:2;">
    <g transform="matrix(1,0,0,1,-8463.14,-1093.48)">
        <g transform="matrix(4.16667,0,0,4.16667,7425,0)">
            <g transform="matrix(1,0,0,1,293.239,350.907)">
                <path d="M0,-88.473C-23.237,-88.473 -42.274,-70.555 -44.084,-47.784L-20.374,-37.981C-18.365,-39.355 -15.938,-40.159 -13.327,-40.159C-13.093,-40.159 -12.86,-40.152 -12.629,-40.139L-2.085,-55.422C-2.085,-55.495 -2.086,-55.566 -2.086,-55.638C-2.086,-64.837 5.397,-72.321 14.597,-72.321C23.796,-72.321 31.279,-64.837 31.279,-55.638C31.279,-46.439 23.796,-38.954 14.597,-38.954C14.47,-38.954 14.344,-38.957 14.218,-38.96L-0.82,-28.23C-0.812,-28.034 -0.805,-27.836 -0.805,-27.638C-0.805,-20.732 -6.422,-15.115 -13.327,-15.115C-19.388,-15.115 -24.456,-19.442 -25.604,-25.17L-42.56,-32.181C-37.31,-13.612 -20.251,0 0,0C24.432,0 44.237,-19.806 44.237,-44.236C44.237,-68.668 24.432,-88.473 0,-88.473" style="fill:white;fill-rule:nonzero;"/>
            </g>
        </g>
        <g transform="matrix(4.16667,0,0,4.16667,7425,0)">
            <g transform="matrix(1,0,0,1,276.877,317.965)">
                <path d="M0,11.592L-5.434,9.347C-4.471,11.352 -2.805,13.03 -0.593,13.953C4.189,15.945 9.702,13.676 11.695,8.891C12.66,6.576 12.666,4.021 11.709,1.701C10.754,-0.62 8.952,-2.43 6.635,-3.396C4.336,-4.353 1.873,-4.317 -0.291,-3.501L5.322,-1.18C8.849,0.29 10.517,4.34 9.047,7.867C7.579,11.394 3.527,13.062 0,11.592" style="fill:white;fill-rule:nonzero;"/>
            </g>
        </g>
        <g transform="matrix(4.16667,0,0,4.16667,7425,0)">
            <g transform="matrix(1,0,0,1,299.503,295.287)">
                <path d="M0,-0.037C0,-4.649 3.739,-8.387 8.351,-8.387C12.963,-8.387 16.702,-4.649 16.702,-0.037C16.702,4.575 12.963,8.313 8.351,8.313C3.739,8.313 0,4.575 0,-0.037M19.448,-0.018C19.448,-6.147 14.462,-11.134 8.332,-11.134C2.203,-11.134 -2.784,-6.147 -2.784,-0.018C-2.784,6.112 2.203,11.097 8.332,11.097C14.462,11.097 19.448,6.112 19.448,-0.018" style="fill:white;fill-rule:nonzero;"/>
            </g>
        </g>
        <g transform="matrix(4.16667,0,0,4.16667,7425,0)">
            <g transform="matrix(1,0,0,1,384.719,320.641)">
                <path d="M0,-27.94L-2.964,-22.73C-5.247,-24.325 -8.341,-25.285 -11.042,-25.285C-14.129,-25.285 -16.039,-24.007 -16.039,-21.718C-16.039,-18.937 -12.646,-18.29 -7.603,-16.48C-2.182,-14.563 0.934,-12.309 0.934,-7.345C0.934,-0.552 -4.408,3.264 -12.086,3.264C-15.828,3.264 -20.342,2.298 -23.812,0.187L-21.65,-5.59C-18.831,-4.1 -15.459,-3.218 -12.453,-3.218C-8.401,-3.218 -6.475,-4.713 -6.475,-6.923C-6.475,-9.452 -9.412,-10.212 -14.153,-11.782C-19.556,-13.586 -23.3,-15.953 -23.3,-21.448C-23.3,-27.645 -18.337,-31.204 -11.196,-31.204C-6.22,-31.204 -2.22,-29.627 0,-27.94" style="fill:white;fill-rule:nonzero;"/>
            </g>
        </g>
        <g transform="matrix(4.16667,0,0,4.16667,7425,0)">
            <g transform="matrix(1,0,0,1,407.888,317.347)">
                <path d="M0,-21.353L0,5.986L-6.978,5.986L-6.978,-21.353L-17.108,-21.353L-17.108,-27.339L10.101,-27.339L10.101,-21.353L0,-21.353Z" style="fill:white;fill-rule:nonzero;"/>
            </g>
        </g>
        <g transform="matrix(4.16667,0,0,4.16667,7425,0)">
            <g transform="matrix(1,0,0,1,432.701,317.365)">
                <path d="M0,-21.389L0,-13.88L13.356,-13.88L13.356,-7.894L0,-7.894L0,-0.072L15.496,-0.072L15.496,5.968L-6.977,5.968L-6.977,-27.357L15.496,-27.357L15.496,-21.389L0,-21.389Z" style="fill:white;fill-rule:nonzero;"/>
            </g>
        </g>
        <g transform="matrix(4.16667,0,0,4.16667,7425,0)">
            <g transform="matrix(1,0,0,1,470.219,315.384)">
                <path d="M0,-17.425L-4.55,-4.082L4.646,-4.082L0,-17.425ZM-6.445,1.48L-8.651,7.95L-15.967,7.95L-3.472,-25.375L3.553,-25.375L16.401,7.95L8.837,7.95L6.583,1.48L-6.445,1.48Z" style="fill:white;fill-rule:nonzero;"/>
            </g>
        </g>
        <g transform="matrix(4.16667,0,0,4.16667,7425,0)">
            <g transform="matrix(1,0,0,1,522.436,310.452)">
                <path d="M0,-7.563L-9.119,11.91L-13.057,11.91L-22.029,-7.389L-22.029,12.881L-28.713,12.881L-28.713,-20.444L-22.045,-20.444L-10.844,3.612L-0.043,-20.444L6.684,-20.444L6.684,12.881L0.001,12.881L0,-7.563Z" style="fill:white;fill-rule:nonzero;"/>
            </g>
        </g>
        <g transform="matrix(4.16667,0,0,4.16667,7425,0)">
            <g transform="matrix(1,0,0,1,537.208,294.462)">
                <path d="M0,-0.487L0.815,-0.487C1.342,-0.487 1.653,-0.818 1.653,-1.234C1.653,-1.654 1.43,-1.924 0.813,-1.924L0,-1.924L0,-0.487ZM0.86,-2.619C2.055,-2.619 2.456,-1.987 2.456,-1.304C2.456,-0.678 2.085,-0.258 1.633,-0.044L2.704,1.963L1.827,1.963L0.924,0.184L-0.007,0.184L-0.007,1.963L-0.737,1.963L-0.737,-2.619L0.86,-2.619ZM-3.052,-0.25C-3.052,2.146 -1.327,3.651 0.795,3.651C2.91,3.651 4.628,2.146 4.628,-0.25C4.628,-2.653 2.91,-4.135 0.795,-4.135C-1.321,-4.135 -3.052,-2.635 -3.052,-0.25M5.405,-0.25C5.405,2.614 3.259,4.399 0.795,4.399C-1.676,4.399 -3.828,2.614 -3.828,-0.25C-3.828,-3.113 -1.676,-4.886 0.795,-4.886C3.259,-4.886 5.405,-3.113 5.405,-0.25" style="fill:white;fill-rule:nonzero;"/>
            </g>
        </g>
    </g>
</svg>
