<?xml version="1.0" encoding="UTF-8" standalone="no"?>
<!DOCTYPE svg PUBLIC "-//W3C//DTD SVG 1.1//EN" "http://www.w3.org/Graphics/SVG/1.1/DTD/svg11.dtd">
<svg width="100%" height="100%" viewBox="0 0 397 381" version="1.1" xmlns="http://www.w3.org/2000/svg" xmlns:xlink="http://www.w3.org/1999/xlink" xml:space="preserve" xmlns:serif="http://www.serif.com/" style="fill-rule:evenodd;clip-rule:evenodd;stroke-linejoin:round;stroke-miterlimit:2;">
    <g transform="matrix(1,0,0,1,-1453.61,-1088.02)">
        <g transform="matrix(4.16667,0,0,4.16667,0,0)">
            <g transform="matrix(1,0,0,1,438.764,274.578)">
                <path d="M0,-0.431L0.809,-0.431C1.337,-0.431 1.662,-0.768 1.662,-1.184C1.662,-1.599 1.444,-1.877 0.814,-1.877L0,-1.877L0,-0.431ZM0.848,-2.482C2.013,-2.482 2.358,-1.875 2.358,-1.247C2.358,-0.642 1.991,-0.246 1.568,-0.041L2.592,1.89L1.816,1.89L0.937,0.165L-0.003,0.165L-0.003,1.89L-0.642,1.89L-0.642,-2.482L0.848,-2.482ZM-2.945,-0.223C-2.945,2.112 -1.241,3.58 0.8,3.58C2.838,3.58 4.532,2.112 4.532,-0.223C4.532,-2.566 2.838,-4.011 0.8,-4.011C-1.238,-4.011 -2.945,-2.559 -2.945,-0.223M5.198,-0.223C5.198,2.512 3.147,4.22 0.8,4.22C-1.55,4.22 -3.611,2.512 -3.611,-0.223C-3.611,-2.956 -1.55,-4.651 0.8,-4.651C3.147,-4.651 5.198,-2.956 5.198,-0.223" style="fill:white;fill-rule:nonzero;"/>
            </g>
        </g>
        <g transform="matrix(4.16667,0,0,4.16667,0,0)">
            <g transform="matrix(1,0,0,1,394.313,352.335)">
                <path d="M0,-91.21C-23.956,-91.21 -43.582,-72.738 -45.447,-49.263L-21.004,-39.157C-18.933,-40.573 -16.431,-41.401 -13.739,-41.401C-13.498,-41.401 -13.258,-41.395 -13.02,-41.381L-2.149,-57.137C-2.149,-57.212 -2.151,-57.285 -2.151,-57.36C-2.151,-66.843 5.564,-74.559 15.048,-74.559C24.531,-74.559 32.247,-66.843 32.247,-57.36C32.247,-47.876 24.531,-40.16 15.048,-40.16C14.917,-40.16 14.788,-40.163 14.658,-40.166L-0.845,-29.104C-0.837,-28.902 -0.83,-28.697 -0.83,-28.493C-0.83,-21.374 -6.621,-15.583 -13.739,-15.583C-19.988,-15.583 -25.212,-20.044 -26.396,-25.95L-43.877,-33.177C-38.464,-14.034 -20.877,0 0,0C25.187,0 45.605,-20.419 45.605,-45.605C45.605,-70.792 25.187,-91.21 0,-91.21" style="fill:white;fill-rule:nonzero;"/>
            </g>
        </g>
        <g transform="matrix(4.16667,0,0,4.16667,0,0)">
            <g transform="matrix(1,0,0,1,377.445,318.373)">
                <path d="M0,11.95L-5.602,9.636C-4.609,11.703 -2.891,13.433 -0.611,14.384C4.318,16.438 10.002,14.098 12.057,9.166C13.051,6.778 13.058,4.145 12.072,1.753C11.087,-0.64 9.228,-2.506 6.84,-3.502C4.47,-4.488 1.931,-4.451 -0.3,-3.61L5.487,-1.217C9.123,0.299 10.842,4.474 9.327,8.11C7.813,11.746 3.636,13.466 0,11.95" style="fill:white;fill-rule:nonzero;"/>
            </g>
        </g>
        <g transform="matrix(4.16667,0,0,4.16667,0,0)">
            <g transform="matrix(1,0,0,1,400.771,294.993)">
                <path d="M0,-0.038C0,-4.793 3.855,-8.646 8.609,-8.646C13.364,-8.646 17.218,-4.793 17.218,-0.038C17.218,4.717 13.364,8.57 8.609,8.57C3.855,8.57 0,4.717 0,-0.038M20.05,-0.018C20.05,-6.337 14.909,-11.479 8.59,-11.479C2.271,-11.479 -2.87,-6.337 -2.87,-0.018C-2.87,6.301 2.271,11.441 8.59,11.441C14.909,11.441 20.05,6.301 20.05,-0.018" style="fill:white;fill-rule:nonzero;"/>
            </g>
        </g>
    </g>
</svg>
